<?xml version="1.0" encoding="utf-8" ?>
<svg baseProfile="full" height="180" version="1.1" width="210" xmlns="http://www.w3.org/2000/svg" xmlns:ev="http://www.w3.org/2001/xml-events" xmlns:xlink="http://www.w3.org/1999/xlink"><defs /><rect fill="#0000FF" height="180" width="210" x="0" y="0" /><circle cx="15" cy="15" fill="#FFFFFF" r="5" /><circle cx="45" cy="15" fill="#FFFFFF" r="5" /><circle cx="75" cy="15" fill="#FFFFFF" r="5" /><circle cx="105" cy="15" fill="#FFFFFF" r="5" /><circle cx="135" cy="15" fill="#FFFFFF" r="5" /><circle cx="165" cy="15" fill="#FFFFFF" r="5" /><circle cx="195" cy="15" fill="#FFFFFF" r="5" /><circle cx="15" cy="45" fill="#FFFFFF" r="5" /><circle cx="45" cy="45" fill="#FFFFFF" r="5" /><circle cx="75" cy="45" fill="#FFFFFF" r="5" /><circle cx="105" cy="45" fill="#FFFFFF" r="5" /><circle cx="135" cy="45" fill="#FFFFFF" r="5" /><circle cx="165" cy="45" fill="#FFFFFF" r="5" /><circle cx="195" cy="45" fill="#FFFFFF" r="5" /><circle cx="15" cy="75" fill="#FFFFFF" r="5" /><circle cx="45" cy="75" fill="#FFFFFF" r="5" /><circle cx="75" cy="75" fill="#FFFF00" r="5" /><circle cx="105" cy="75" fill="#FF0000" r="5" /><circle cx="135" cy="75" fill="#FFFFFF" r="5" /><circle cx="165" cy="75" fill="#FFFFFF" r="5" /><circle cx="195" cy="75" fill="#FFFFFF" r="5" /><circle cx="15" cy="105" fill="#FFFFFF" r="5" /><circle cx="45" cy="105" fill="#FFFFFF" r="5" /><circle cx="75" cy="105" fill="#FF0000" r="5" /><circle cx="105" cy="105" fill="#FFFF00" r="5" /><circle cx="135" cy="105" fill="#FFFFFF" r="5" /><circle cx="165" cy="105" fill="#FFFFFF" r="5" /><circle cx="195" cy="105" fill="#FFFFFF" r="5" /><circle cx="15" cy="135" fill="#FFFFFF" r="5" /><circle cx="45" cy="135" fill="#FFFF00" r="5" /><circle cx="75" cy="135" fill="#FF0000" r="5" /><circle cx="105" cy="135" fill="#FF0000" r="5" /><circle cx="135" cy="135" fill="#FFFF00" r="5" /><circle cx="165" cy="135" fill="#FFFFFF" r="5" /><circle cx="195" cy="135" fill="#FFFFFF" r="5" /><circle cx="15" cy="165" fill="#FF0000" r="5" /><circle cx="45" cy="165" fill="#FF0000" r="5" /><circle cx="75" cy="165" fill="#FFFF00" r="5" /><circle cx="105" cy="165" fill="#FFFF00" r="5" /><circle cx="135" cy="165" fill="#FF0000" r="5" /><circle cx="165" cy="165" fill="#FFFF00" r="5" /><circle cx="195" cy="165" fill="#FFFFFF" r="5" /></svg>