<?xml version="1.0" encoding="utf-8" ?>
<svg baseProfile="full" height="600" version="1.1" width="700" xmlns="http://www.w3.org/2000/svg" xmlns:ev="http://www.w3.org/2001/xml-events" xmlns:xlink="http://www.w3.org/1999/xlink"><defs /><rect fill="#0000FF" height="600" width="700" x="0" y="0" /><circle cx="50" cy="50" fill="#FFFFFF" r="40" /><circle cx="150" cy="50" fill="#FFFFFF" r="40" /><circle cx="250" cy="50" fill="#FFFFFF" r="40" /><circle cx="350" cy="50" fill="#FFFFFF" r="40" /><circle cx="450" cy="50" fill="#FFFFFF" r="40" /><circle cx="550" cy="50" fill="#FFFFFF" r="40" /><circle cx="650" cy="50" fill="#FFFFFF" r="40" /><circle cx="50" cy="150" fill="#FFFFFF" r="40" /><circle cx="150" cy="150" fill="#FFFFFF" r="40" /><circle cx="250" cy="150" fill="#FFFFFF" r="40" /><circle cx="350" cy="150" fill="#FFFFFF" r="40" /><circle cx="450" cy="150" fill="#FFFFFF" r="40" /><circle cx="550" cy="150" fill="#FFFFFF" r="40" /><circle cx="650" cy="150" fill="#FFFFFF" r="40" /><circle cx="50" cy="250" fill="#FFFFFF" r="40" /><circle cx="150" cy="250" fill="#FFFFFF" r="40" /><circle cx="250" cy="250" fill="#FFFF00" r="40" /><circle cx="350" cy="250" fill="#FF0000" r="40" /><circle cx="450" cy="250" fill="#FFFFFF" r="40" /><circle cx="550" cy="250" fill="#FFFFFF" r="40" /><circle cx="650" cy="250" fill="#FFFFFF" r="40" /><circle cx="50" cy="350" fill="#FFFFFF" r="40" /><circle cx="150" cy="350" fill="#FFFFFF" r="40" /><circle cx="250" cy="350" fill="#FF0000" r="40" /><circle cx="350" cy="350" fill="#FFFF00" r="40" /><circle cx="450" cy="350" fill="#FFFFFF" r="40" /><circle cx="550" cy="350" fill="#FFFFFF" r="40" /><circle cx="650" cy="350" fill="#FFFFFF" r="40" /><circle cx="50" cy="450" fill="#FFFFFF" r="40" /><circle cx="150" cy="450" fill="#FFFF00" r="40" /><circle cx="250" cy="450" fill="#FF0000" r="40" /><circle cx="350" cy="450" fill="#FF0000" r="40" /><circle cx="450" cy="450" fill="#FFFF00" r="40" /><circle cx="550" cy="450" fill="#FFFFFF" r="40" /><circle cx="650" cy="450" fill="#FFFFFF" r="40" /><circle cx="50" cy="550" fill="#FF0000" r="40" /><circle cx="150" cy="550" fill="#FF0000" r="40" /><circle cx="250" cy="550" fill="#FFFF00" r="40" /><circle cx="350" cy="550" fill="#FFFF00" r="40" /><circle cx="450" cy="550" fill="#FF0000" r="40" /><circle cx="550" cy="550" fill="#FFFF00" r="40" /><circle cx="650" cy="550" fill="#FFFFFF" r="40" /></svg>